<?xml version="1.0" standalone="no"?>
<!DOCTYPE svg PUBLIC "-//W3C//DTD SVG 20010904//EN"
 "http://www.w3.org/TR/2001/REC-SVG-20010904/DTD/svg10.dtd">
<svg version="1.0" xmlns="http://www.w3.org/2000/svg"
 width="1856.000000pt" height="2624.000000pt" viewBox="0 0 1856.000000 2624.000000"
 preserveAspectRatio="xMidYMid meet">

<g transform="translate(0.000000,2624.000000) scale(0.100000,-0.100000)"
fill="#000000" stroke="none">
<path d="M7055 21263 c-287 -10 -902 -61 -888 -74 5 -3 60 -16 123 -28 439
-84 993 -287 1373 -502 146 -83 363 -228 477 -319 140 -113 348 -323 436 -440
80 -107 169 -248 162 -256 -3 -2 -79 28 -169 67 -1602 697 -3184 718 -4526 58
-375 -185 -701 -410 -958 -662 -118 -117 -124 -125 -65 -83 760 539 1704 760
2735 641 527 -61 1071 -215 1515 -430 60 -29 68 -35 40 -31 -384 54 -633 71
-930 63 -1029 -30 -1931 -371 -2822 -1065 -249 -194 -580 -513 -779 -752 -564
-675 -982 -1513 -1163 -2331 -14 -64 -26 -120 -26 -124 0 -4 30 38 68 93 153
229 378 498 613 732 402 401 850 708 1330 913 152 65 168 66 49 2 -139 -75
-389 -242 -525 -352 -477 -383 -887 -932 -1150 -1538 -402 -927 -558 -2067
-434 -3180 19 -174 45 -354 52 -361 1 -2 8 62 15 141 18 210 66 528 117 780
350 1730 1270 3051 2610 3746 250 130 665 294 725 287 l25 -3 -37 -35 c-20
-19 -125 -89 -233 -154 -611 -370 -1050 -709 -1490 -1150 -269 -269 -475 -521
-670 -816 -374 -568 -574 -1124 -662 -1840 -13 -111 -17 -222 -18 -475 0 -399
16 -568 86 -925 125 -638 396 -1303 754 -1850 84 -130 212 -306 202 -280 -3 8
-24 58 -46 112 -148 359 -272 858 -317 1280 -22 213 -15 627 15 813 21 131 73
353 89 382 6 10 13 -22 21 -93 107 -959 537 -1962 1240 -2894 445 -592 1024
-1146 1556 -1492 72 -47 137 -89 145 -93 18 -11 22 -16 -92 125 -239 295 -553
746 -756 1085 -516 863 -951 1869 -1245 2880 -110 378 -129 483 -129 740 0
283 20 378 193 901 342 1042 783 1958 1353 2813 538 808 1207 1538 1961 2143
1203 963 2578 1555 4015 1728 270 32 699 57 1090 63 l145 2 -215 215 c-394
394 -986 888 -1345 1123 -531 346 -1370 590 -2310 671 -368 32 -915 44 -1330
29z m-501 -2934 c234 -18 228 -25 -29 -32 -963 -25 -1878 -310 -2780 -866
-507 -312 -999 -728 -1389 -1174 -71 -81 -131 -147 -134 -147 -2 0 0 6 5 13 5
6 38 50 74 97 457 609 993 1089 1632 1464 629 368 1303 593 1932 645 150 12
531 12 689 0z m180 -730 c-130 -98 -249 -204 -414 -369 -300 -300 -581 -640
-960 -1160 -62 -85 -115 -158 -119 -162 -3 -4 -6 52 -6 125 0 130 -1 134 -33
200 -74 149 -226 198 -444 142 -137 -36 -401 -155 -643 -291 -241 -135 -614
-379 -820 -536 -16 -12 -27 -18 -24 -13 237 423 550 781 935 1073 588 444
1470 818 2364 1002 248 52 248 52 164 -11z"/>
<path d="M13154 20860 c-215 -108 -463 -353 -628 -619 -221 -357 -301 -736
-215 -1016 11 -39 61 -154 109 -257 98 -205 138 -318 124 -349 -9 -19 -285
-261 -291 -255 -2 2 17 39 43 82 80 136 97 212 74 335 -13 66 -80 290 -92 304
-10 12 -122 -104 -183 -190 -117 -164 -148 -250 -164 -450 -31 -373 -161 -704
-403 -1016 -295 -381 -802 -709 -1351 -874 -94 -28 -97 -30 -65 -38 53 -13
505 -20 588 -9 41 5 76 8 78 7 2 -2 -16 -29 -38 -61 -60 -85 -162 -258 -219
-373 -48 -94 -52 -99 -88 -106 -70 -13 -297 -92 -410 -143 -142 -63 -321 -169
-454 -268 -209 -156 -430 -399 -522 -576 l-39 -73 38 45 c159 191 379 335 614
403 117 34 177 45 305 57 132 12 125 12 125 3 0 -5 -27 -16 -60 -27 -78 -24
-207 -101 -300 -179 -312 -261 -540 -740 -654 -1372 -129 -709 -87 -1483 117
-2195 53 -183 150 -446 142 -385 -10 85 -34 427 -40 580 -7 175 7 492 31 705
76 678 286 1263 610 1700 67 91 369 409 379 399 1 -2 15 -69 29 -149 52 -280
123 -521 223 -749 l54 -124 -50 -111 c-211 -477 -337 -1052 -401 -1836 -38
-478 -50 -688 -85 -1625 -18 -469 -49 -938 -78 -1168 -1 -13 35 -35 158 -93
169 -80 392 -181 512 -232 l72 -31 -19 44 c-70 164 -146 541 -182 910 -14 140
-18 778 -6 791 4 4 120 -69 258 -162 576 -389 764 -515 1325 -892 325 -217
703 -472 840 -566 138 -93 296 -194 351 -223 176 -92 422 -161 711 -200 177
-23 592 -23 795 0 634 75 1241 276 1741 579 128 77 342 227 335 234 -2 2 -46
-6 -98 -17 -139 -29 -304 -35 -419 -15 -288 50 -543 203 -758 455 l-63 74 50
28 c118 64 220 160 293 274 52 82 87 161 134 305 43 132 53 148 180 283 129
138 174 205 268 399 93 194 115 266 115 372 0 99 -19 143 -115 278 -137 191
-174 292 -340 938 -150 583 -188 701 -357 1100 -288 676 -411 1061 -475 1478
-24 158 -27 205 -27 442 0 302 14 421 84 727 22 94 40 184 40 200 0 60 -26
112 -145 289 -68 101 -122 184 -120 184 2 0 39 -15 82 -34 43 -18 188 -72 323
-119 281 -98 405 -148 542 -219 192 -98 396 -249 499 -369 116 -136 235 -329
274 -443 11 -31 23 -56 29 -56 13 0 0 370 -19 515 -52 396 -176 630 -403 764
-37 22 -128 65 -202 96 -345 145 -428 182 -537 242 -214 118 -313 191 -488
361 -244 238 -375 348 -567 476 -129 85 -340 197 -473 249 -95 38 -335 110
-342 103 -2 -2 49 -86 115 -187 65 -101 238 -375 384 -609 555 -890 601 -970
645 -1135 26 -95 27 -112 27 -335 0 -191 -5 -286 -29 -510 -38 -365 -41 -651
-6 -810 42 -198 120 -416 414 -1160 260 -659 271 -697 347 -1130 109 -625 150
-788 274 -1089 73 -174 89 -232 90 -326 2 -150 -50 -255 -212 -429 -153 -162
-180 -207 -251 -410 -23 -66 -56 -146 -73 -178 -41 -76 -131 -161 -213 -200
-58 -26 -85 -32 -213 -43 -154 -14 -177 -18 -335 -67 -126 -39 -213 -40 -289
-5 -102 46 -134 85 -278 337 -163 284 -324 548 -453 740 -168 253 -195 310
-144 310 63 0 223 -144 353 -316 95 -127 180 -264 324 -523 124 -226 193 -332
205 -319 3 3 16 43 30 89 13 47 34 107 46 134 27 62 96 164 115 172 23 9 17
15 -51 66 -152 113 -262 302 -295 510 -17 104 -8 279 20 377 27 93 90 215 142
275 l40 45 -32 37 c-81 92 -143 288 -161 513 -14 158 -3 379 32 655 24 193 39
256 32 135 -12 -190 32 -631 82 -833 42 -164 110 -322 167 -383 18 -20 26 -21
126 -17 109 5 233 -11 318 -41 38 -14 38 -14 -51 -14 -258 -1 -462 -172 -537
-449 -27 -102 -29 -287 -4 -388 40 -166 157 -333 278 -401 46 -25 63 -29 133
-29 63 0 89 5 121 22 104 55 140 164 87 267 -8 17 -51 79 -94 137 -140 192
-187 303 -176 424 5 51 10 64 38 89 30 26 37 28 91 23 74 -7 172 -52 232 -108
56 -51 99 -138 119 -239 8 -41 16 -65 16 -53 1 12 10 145 21 295 57 799 55
833 -60 1223 -202 684 -613 1770 -850 2250 -108 218 -225 416 -347 583 -90
124 -251 317 -317 382 -42 40 -46 48 -46 92 0 265 -260 587 -619 767 -103 52
-286 114 -403 137 -49 9 -88 20 -88 24 0 3 13 34 30 68 35 73 82 227 101 332
20 111 17 374 -5 485 -20 102 -65 247 -102 331 -14 31 -24 58 -22 59 2 2 48
21 103 43 486 193 695 326 695 440 0 35 -44 104 -101 158 -55 51 -310 257
-314 252 -8 -10 -35 -183 -37 -240 -5 -111 -23 -60 -22 60 2 166 28 256 138
479 102 207 129 276 147 378 17 98 5 303 -25 450 -70 332 -59 447 56 638 37
62 40 72 32 105 -11 44 -62 82 -109 82 -18 0 -68 -18 -111 -40z m29 -162
c-155 -165 -331 -539 -416 -883 -70 -280 -78 -523 -26 -730 37 -147 124 -327
228 -475 l46 -65 -40 32 c-58 46 -214 209 -266 278 -96 128 -173 278 -210 411
-103 364 194 1036 615 1395 85 73 121 91 69 37z m-668 -4195 c131 -88 217
-121 405 -153 271 -46 429 -141 513 -305 51 -102 59 -238 21 -360 l-17 -54 44
-48 c57 -60 94 -124 125 -211 33 -94 31 -116 -5 -61 -65 97 -191 193 -296 225
-27 8 -109 20 -182 25 -196 14 -286 52 -392 164 -72 76 -101 142 -101 231 0
65 13 128 30 147 3 4 4 -19 2 -51 -9 -120 44 -224 147 -291 88 -57 142 -69
329 -74 l162 -4 0 66 c0 138 -47 257 -130 335 -81 76 -164 108 -314 121 -85 7
-143 36 -234 114 -65 56 -193 198 -258 286 l-29 40 60 -51 c33 -28 87 -69 120
-91z m-1577 -280 c-82 -277 -148 -739 -148 -1043 0 -502 128 -1009 346 -1373
234 -389 564 -636 904 -678 222 -27 472 42 653 179 37 29 70 52 73 52 17 0
-37 -262 -77 -377 l-29 -83 26 -52 c112 -221 375 -619 647 -978 137 -181 139
-184 83 -80 -197 359 -321 653 -391 925 -33 129 -65 292 -65 330 0 11 38 -52
83 -140 148 -287 315 -566 568 -951 l139 -210 -70 -135 c-80 -156 -139 -305
-147 -369 -3 -31 1 -60 14 -95 21 -53 474 -840 622 -1080 97 -158 181 -268
241 -316 50 -40 44 -44 -72 -54 -81 -6 -92 -5 -143 19 -80 36 -171 129 -288
291 -156 216 -210 262 -370 320 -141 50 -169 139 -127 397 25 153 50 416 50
518 l0 77 -52 60 c-320 359 -702 911 -963 1391 -43 78 -78 142 -79 142 0 0
-33 -7 -71 -15 -91 -19 -262 -19 -365 1 -403 76 -770 393 -1015 876 -138 269
-214 519 -267 868 -21 135 -17 626 5 770 45 289 118 535 224 752 56 117 80
158 88 158 1 0 -11 -44 -27 -97z m1930 -1593 c75 -82 173 -160 351 -281 153
-103 228 -171 266 -241 28 -50 30 -60 30 -163 0 -104 -2 -113 -33 -178 -21
-43 -56 -91 -92 -127 l-59 -59 34 -21 c89 -55 214 -229 279 -390 34 -84 96
-284 96 -311 0 -8 -19 22 -41 66 -139 270 -347 500 -571 629 l-46 27 34 56
c65 108 78 156 79 284 0 113 -1 116 -37 190 -21 40 -76 124 -124 184 -139 177
-220 309 -287 470 -43 104 -40 113 9 23 27 -52 72 -116 112 -158z"/>
<path d="M14860 20813 c-29 -11 -53 -39 -131 -154 -93 -137 -229 -274 -359
-361 -47 -31 -157 -98 -245 -148 -88 -51 -189 -113 -225 -138 -158 -111 -249
-242 -275 -394 l-6 -38 -118 0 -117 0 -18 -56 c-29 -91 -82 -209 -164 -364
-42 -80 -78 -148 -80 -151 -1 -3 53 -46 120 -96 68 -50 163 -126 211 -168 85
-74 91 -77 155 -86 472 -66 1084 -366 1585 -777 226 -185 438 -286 687 -327
192 -33 455 -8 630 58 104 39 330 158 330 174 0 2 -35 1 -77 -2 -219 -19 -494
61 -707 205 -199 133 -341 276 -601 600 -269 335 -457 504 -744 672 l-128 74
49 54 c63 70 138 223 183 374 20 66 56 223 81 350 25 127 61 306 79 397 38
182 41 215 23 254 -20 44 -87 67 -138 48z"/>
<path d="M8020 17003 c-305 -252 -822 -756 -1095 -1068 -809 -922 -1398 -1859
-1735 -2760 -113 -302 -127 -354 -141 -548 -35 -465 72 -980 300 -1452 404
-835 1156 -1549 2311 -2194 1079 -603 2509 -1104 4040 -1416 621 -126 1299
-237 1810 -295 331 -37 1145 -98 1157 -87 2 3 -49 14 -114 26 -469 87 -1482
342 -2213 558 -621 183 -1329 418 -1870 620 -2005 750 -3317 1544 -4045 2448
-87 108 -227 323 -288 442 -138 272 -175 485 -164 957 10 449 63 823 187 1314
301 1202 894 2326 1729 3281 159 181 193 221 189 220 -2 0 -28 -21 -58 -46z"/>
<path d="M8162 14833 c-289 -432 -514 -1007 -636 -1628 -210 -1071 -94 -2160
335 -3137 l61 -137 136 -89 c246 -161 498 -310 688 -405 l71 -36 -39 102 c-61
161 -213 631 -283 872 -415 1447 -555 2701 -420 3780 23 182 72 442 115 610
21 83 37 152 35 153 -2 2 -30 -36 -63 -85z"/>
<path d="M4567 12560 c-52 -229 -72 -458 -72 -820 1 -316 8 -420 51 -730 141
-1007 582 -2068 1245 -2991 280 -391 513 -665 863 -1014 127 -127 285 -278
351 -336 1176 -1031 2552 -1657 4095 -1863 362 -49 819 -73 1117 -61 l178 8
-110 22 c-137 28 -210 56 -287 109 -153 105 -165 217 -39 346 179 182 503 312
879 351 149 15 593 6 772 -16 74 -9 293 -43 485 -75 470 -79 577 -91 876 -97
274 -6 419 3 593 38 379 76 705 273 887 536 48 69 139 247 139 271 0 6 -42
-16 -92 -49 -250 -163 -542 -268 -868 -311 -142 -18 -487 -15 -655 6 -383 49
-753 154 -1085 309 -255 119 -982 272 -1640 346 -390 44 -599 58 -1150 76
-245 8 -494 19 -555 25 -707 66 -1307 231 -1822 500 -649 339 -1171 804 -1540
1372 l-95 148 -127 66 c-713 377 -1269 863 -1668 1459 -429 642 -663 1403
-701 2285 l-7 165 -18 -75z"/>
<path d="M5747 6483 c-13 -12 -7 -23 13 -23 11 0 20 7 20 15 0 15 -21 21 -33
8z"/>
<path d="M6085 6480 c-4 -6 -9 -53 -12 -105 -6 -92 -5 -95 15 -95 19 0 21 7
24 63 l3 62 19 -62 c11 -35 24 -63 31 -63 6 0 20 28 31 63 l19 62 3 -63 c3
-53 6 -63 20 -60 14 3 17 18 20 99 2 88 1 97 -17 102 -28 7 -35 -1 -55 -68
l-19 -60 -13 40 c-7 22 -15 52 -18 68 -6 28 -38 38 -51 17z"/>
<path d="M5487 6391 c-15 -49 -27 -95 -27 -100 0 -17 27 -13 34 4 3 9 18 15
36 15 18 0 33 -6 36 -15 4 -8 13 -15 21 -15 16 0 15 8 -16 130 -13 51 -21 66
-37 68 -17 2 -24 -10 -47 -87z m57 -13 c9 -35 8 -38 -14 -38 -11 0 -20 3 -20
8 0 19 13 52 20 52 4 0 10 -10 14 -22z"/>
<path d="M5943 6450 c-3 -11 -9 -20 -14 -20 -9 0 0 -93 12 -127 6 -16 17 -23
33 -23 32 0 44 20 17 27 -17 4 -21 13 -21 49 0 32 4 44 15 44 8 0 15 7 15 15
0 8 -7 15 -15 15 -8 0 -15 9 -15 20 0 11 -5 20 -11 20 -6 0 -13 -9 -16 -20z"/>
<path d="M5632 6417 c-24 -29 -30 -63 -17 -94 13 -31 46 -50 65 -38 5 3 10 -1
10 -10 0 -21 -27 -30 -45 -15 -20 17 -32 4 -19 -18 16 -25 47 -26 77 -2 25 20
27 27 27 94 0 43 -5 77 -12 84 -16 16 -73 15 -86 -1z m58 -42 c17 -20 8 -50
-14 -50 -23 0 -41 27 -33 49 8 20 31 21 47 1z"/>
<path d="M5750 6354 c0 -63 3 -75 16 -72 8 2 15 6 15 11 -1 4 -1 36 -1 72 0
51 -3 65 -15 65 -12 0 -15 -15 -15 -76z"/>
<path d="M5822 6418 c-24 -24 -12 -69 21 -81 26 -10 21 -27 -9 -27 -16 0 -24
-5 -22 -12 9 -27 81 -21 92 8 8 21 -9 51 -34 59 -11 3 -20 13 -20 22 0 10 6
13 16 9 21 -8 34 1 27 19 -6 18 -54 20 -71 3z"/>
<path d="M6300 6398 c-25 -42 -25 -69 0 -96 26 -28 62 -28 86 0 l19 21 -32 -6
c-21 -4 -35 -2 -43 8 -11 13 -6 15 29 15 38 0 41 2 41 28 0 63 -68 83 -100 30z
m60 -13 c0 -8 -7 -15 -15 -15 -16 0 -20 12 -8 23 11 12 23 8 23 -8z"/>
</g>
</svg>
